<svg width="170" height="43" viewBox="0 0 170 43" fill="none" xmlns="http://www.w3.org/2000/svg">
<path d="M58.24 32.9256V10.5256H63.456L72.736 25.7576H69.984L79.008 10.5256H84.224L84.288 32.9256H78.464L78.4 19.3896H79.392L72.64 30.7176H69.824L62.88 19.3896H64.096V32.9256H58.24ZM88.7713 32.9256V10.5256H95.1073V32.9256H88.7713ZM107.487 33.3736C105.652 33.3736 103.882 33.1496 102.175 32.7016C100.49 32.2323 99.1137 31.6349 98.047 30.9096L100.127 26.2376C101.13 26.8776 102.282 27.4109 103.583 27.8376C104.906 28.2429 106.218 28.4456 107.519 28.4456C108.394 28.4456 109.098 28.3709 109.631 28.2216C110.164 28.0509 110.548 27.8376 110.783 27.5816C111.039 27.3043 111.167 26.9843 111.167 26.6216C111.167 26.1096 110.932 25.7043 110.463 25.4056C109.994 25.1069 109.386 24.8616 108.639 24.6696C107.892 24.4776 107.06 24.2856 106.143 24.0936C105.247 23.9016 104.34 23.6563 103.423 23.3576C102.527 23.0589 101.706 22.6749 100.959 22.2056C100.212 21.7149 99.6043 21.0856 99.135 20.3176C98.6657 19.5283 98.431 18.5363 98.431 17.3416C98.431 15.9976 98.7937 14.7816 99.519 13.6936C100.266 12.6056 101.375 11.7309 102.847 11.0696C104.319 10.4083 106.154 10.0776 108.351 10.0776C109.823 10.0776 111.263 10.2483 112.671 10.5896C114.1 10.9096 115.37 11.3896 116.479 12.0296L114.527 16.7336C113.46 16.1576 112.404 15.7309 111.359 15.4536C110.314 15.1549 109.3 15.0056 108.319 15.0056C107.444 15.0056 106.74 15.1016 106.207 15.2936C105.674 15.4643 105.29 15.6989 105.055 15.9976C104.82 16.2963 104.703 16.6376 104.703 17.0216C104.703 17.5123 104.927 17.9069 105.375 18.2056C105.844 18.4829 106.452 18.7176 107.199 18.9096C107.967 19.0803 108.799 19.2616 109.695 19.4536C110.612 19.6456 111.519 19.8909 112.415 20.1896C113.332 20.4669 114.164 20.8509 114.911 21.3416C115.658 21.8109 116.255 22.4403 116.703 23.2296C117.172 23.9976 117.407 24.9683 117.407 26.1416C117.407 27.4429 117.034 28.6483 116.287 29.7576C115.562 30.8456 114.463 31.7203 112.991 32.3816C111.54 33.0429 109.706 33.3736 107.487 33.3736ZM117.646 32.9256L127.534 10.5256H133.774L143.694 32.9256H137.102L129.358 13.6296H131.854L124.11 32.9256H117.646ZM123.054 28.5736L124.686 23.9016H135.63L137.262 28.5736H123.054ZM156.474 33.3736C154.682 33.3736 153.028 33.0856 151.514 32.5096C149.999 31.9336 148.676 31.1229 147.546 30.0776C146.436 29.0109 145.572 27.7736 144.954 26.3656C144.335 24.9576 144.026 23.4109 144.026 21.7256C144.026 20.0403 144.335 18.4936 144.954 17.0856C145.572 15.6776 146.436 14.4509 147.546 13.4056C148.676 12.3389 149.999 11.5176 151.514 10.9416C153.028 10.3656 154.682 10.0776 156.474 10.0776C158.287 10.0776 159.94 10.3656 161.434 10.9416C162.948 11.5176 164.26 12.3389 165.37 13.4056C166.479 14.4509 167.343 15.6776 167.962 17.0856C168.602 18.4936 168.922 20.0403 168.922 21.7256C168.922 23.4109 168.602 24.9683 167.962 26.3976C167.343 27.8056 166.479 29.0323 165.37 30.0776C164.26 31.1229 162.948 31.9336 161.434 32.5096C159.94 33.0856 158.287 33.3736 156.474 33.3736ZM156.474 28.1256C157.327 28.1256 158.116 27.9763 158.842 27.6776C159.588 27.3789 160.228 26.9523 160.762 26.3976C161.316 25.8216 161.743 25.1389 162.042 24.3496C162.362 23.5603 162.522 22.6856 162.522 21.7256C162.522 20.7443 162.362 19.8696 162.042 19.1016C161.743 18.3123 161.316 17.6403 160.762 17.0856C160.228 16.5096 159.588 16.0723 158.842 15.7736C158.116 15.4749 157.327 15.3256 156.474 15.3256C155.62 15.3256 154.82 15.4749 154.074 15.7736C153.348 16.0723 152.708 16.5096 152.154 17.0856C151.62 17.6403 151.194 18.3123 150.874 19.1016C150.575 19.8696 150.426 20.7443 150.426 21.7256C150.426 22.6856 150.575 23.5603 150.874 24.3496C151.194 25.1389 151.62 25.8216 152.154 26.3976C152.708 26.9523 153.348 27.3789 154.074 27.6776C154.82 27.9763 155.62 28.1256 156.474 28.1256Z" fill="white"/>
<path d="M37.5174 0H31.899V5.7494H37.5174V0Z" fill="#FFEA00"/>
<path d="M45 3.53088H41.3198V7.29835H45V3.53088Z" fill="#FFEA00"/>
<path d="M40.1315 8.33842H35.891V12.6795H40.1315V8.33842Z" fill="#FFEA00"/>
<path d="M33.9855 8.20897H27.1875L20.3917 15.1658L13.5938 8.20897H0V43H13.5938L20.3895 36.0431L27.1853 43.0022H40.7813V15.1658H33.9855V8.20897ZM33.9855 36.0409H27.1897V22.1249L20.3917 29.084L13.5959 22.1249V36.0409H6.79797V15.1658H13.5959L20.3917 22.1227L27.1897 15.1658H33.9876L33.9855 36.0409Z" fill="#FFEA00"/>
<path d="M14.189 23.5913V30.9454C14.6555 31.1776 15.1221 31.4075 15.5952 31.6284C16.0291 31.807 16.7856 32.1239 17.069 32.2266C19.9164 33.2756 22.8314 34.0567 25.8096 34.5589C26.0712 34.5879 26.335 34.6102 26.5988 34.6348V23.5913L20.3939 29.9433L14.189 23.5913Z" fill="#FFEA00"/>
<path d="M35.1475 34.5879C36.8481 34.2978 38.5313 33.9094 40.1904 33.4251V15.7729H34.5785V34.6393C34.7682 34.6214 34.9579 34.608 35.1475 34.5879Z" fill="#FFEA00"/>
<path d="M2.15407 22.3079C3.43822 23.4998 4.71148 24.7095 6.06104 25.8232C6.10029 25.8567 6.15043 25.8969 6.20494 25.9393V14.561H13.8423L20.3939 21.2679L26.9455 14.561H33.3946V8.81605H27.436L20.3917 16.0251L13.3496 8.81605H0.593021V20.8081C1.10538 21.3148 1.62427 21.8169 2.15407 22.3079Z" fill="#FFEA00"/>
</svg>
